<?xml version="1.0" encoding="UTF-8"?>
<svg xmlns="http://www.w3.org/2000/svg" width="512" height="512" viewBox="0 0 512 512" fill="none">
  <path d="M512 256C512 496 496 512 256 512C16 512 0 504 0 256C0 8 8 0 256 0C504 0 512 16 512 256Z" fill="#086C81"></path>
  <path fill-rule="evenodd" clip-rule="evenodd" d="M257.753 359.529C250.119 359.438 245.381 357.331 240.906 354.766C232.22 349.911 223.621 344.965 215.022 340.018C200.691 331.835 186.389 323.622 172.117 315.378C168.344 313.271 164.571 311.164 161.061 308.691C158.78 307.134 156.674 305.027 154.919 302.829C151.585 298.615 151.322 293.577 153.252 288.722C155.972 281.944 159.219 275.349 162.465 268.845C167.291 258.952 172.292 249.242 177.293 239.441C183.172 227.716 189.139 215.991 195.105 204.175C201.072 192.358 207.038 180.359 213.092 168.451C218.181 158.192 223.446 147.932 228.623 137.673C232.746 129.521 236.783 121.185 240.994 113.032C243.451 108.178 245.732 103.048 249.593 99.1092C252.664 95.9032 256.086 95.0788 259.42 97.094C261.175 98.1932 262.93 99.7504 263.983 101.491C266.703 105.888 269.247 110.376 271.616 114.956C275.126 121.643 278.46 128.513 281.882 135.291C287.059 145.642 292.236 155.993 297.412 166.344C301.448 174.405 305.572 182.374 309.608 190.435C313.177 197.58 316.774 204.725 320.401 211.869C324.086 219.289 327.859 226.617 331.544 234.037C335.141 241.09 338.651 248.235 342.249 255.288C346.811 264.448 351.461 273.425 355.849 282.677C357.165 285.241 358.042 288.081 358.832 290.921C360.411 297.241 358.305 302.554 353.655 306.218C349.443 309.515 344.969 312.172 340.494 314.828C332.597 319.5 324.612 323.988 316.716 328.477C308.38 333.24 300.045 337.912 291.709 342.675C284.076 347.072 276.442 351.469 268.721 355.682C264.509 358.064 260.122 359.529 257.753 359.529ZM218.269 278.005C221.603 279.929 224.762 281.852 227.921 283.593C236.519 288.539 245.118 293.394 253.717 298.34C255.121 299.165 256.349 299.165 257.753 298.432C265.562 293.943 273.371 289.455 281.268 284.967C285.187 282.707 289.135 280.417 293.113 278.097C290.744 271.868 256.7 205.091 255.384 204.358C243.012 228.815 230.641 253.364 218.269 278.005Z" fill="#CBDDE1"></path>
  <path d="M390.084 416C384.661 415.636 379.151 415.454 373.816 414.816C366.645 414.088 361.309 409.9 357.811 403.435C352.301 393.602 347.228 383.496 342.243 373.389C341.019 370.84 340.406 367.835 340.144 365.013C339.532 358.73 342.68 354.36 347.316 351.264C352.039 348.078 356.936 345.255 361.834 342.433C364.546 340.976 367.344 339.61 370.318 338.609C376.965 336.241 382.3 337.88 386.498 343.889C389.559 348.26 392.096 353.085 394.545 357.82C397.955 364.193 401.192 370.658 404.428 377.213C407.926 384.224 411.424 391.326 414.748 398.519C415.535 400.249 415.885 402.434 415.972 404.346C416.322 409.445 413.349 413.36 408.276 414.452C405.39 415.09 402.329 415.363 399.355 415.545C396.294 415.727 393.145 415.636 390.084 415.636C390.084 415.757 390.084 415.879 390.084 416Z" fill="#CBDDE1"></path>
  <path d="M120.457 416C116.063 415.727 110.349 415.545 104.812 414.816C101.032 414.27 97.6041 412.448 96.3736 408.168C95.8462 406.165 95.9341 403.888 96.2857 401.793C97.0767 396.875 99.6258 392.686 101.823 388.315C106.306 379.299 110.877 370.283 115.535 361.358C118.436 355.803 121.336 350.157 124.764 344.875C129.335 337.68 136.367 335.677 143.662 339.41C150.782 343.144 157.814 346.969 164.494 351.432C171.262 355.985 173.811 362.633 170.471 370.83C167.482 378.206 163.791 385.219 160.187 392.322C157.902 396.784 155.528 401.065 152.891 405.254C149.024 411.356 143.399 414.634 136.63 415.18C131.62 415.636 126.698 415.727 120.457 416Z" fill="#CBDDE1"></path>
</svg>
