<svg width="1696" height="240" viewBox="0 0 1696 240" fill="none" xmlns="http://www.w3.org/2000/svg">
<path fill-rule="evenodd" clip-rule="evenodd" d="M1695.79 239.831H1437.96V209.325H1450.02C1478.26 209.325 1501.2 186.273 1501.2 158.023C1501.2 140.171 1491.69 123.398 1476.39 114.079L1474.53 113L1475.8 111.332C1481.88 102.602 1485.22 92.4011 1485.22 81.7092C1485.22 55.6172 1465.61 33.7431 1439.73 30.8003L1437.96 30.6042V3.92361H1417.77V30.5061H1397.48V3.92361H1377.38V30.5061H1336.3V56.6962H1365.03V183.135H1336.3V209.325H1377.38V239.831H0V236L1373.46 235.907V213.248H1332.38V179.211H1361.11V60.6198H1332.38V26.5825H1373.46V0H1401.4V26.5825H1413.85V0H1441.89V27.171C1468.94 30.9965 1489.14 54.1459 1489.14 81.7092C1489.14 92.4992 1486 102.897 1480.12 111.823C1495.61 122.024 1505.12 139.484 1505.12 158.023C1505.12 188.431 1480.41 213.248 1450.02 213.248H1441.89V235.907H1695.79V239.831ZM1417.77 237.869H1413.85V213.248H1401.4V237.869H1397.48V209.325H1417.77V237.869ZM1450.02 183.135H1391.1V133.01H1450.02C1463.84 133.01 1475.02 144.193 1475.02 158.023C1475.02 171.854 1463.84 183.135 1450.02 183.135ZM1395.03 179.211H1450.02C1461.69 179.211 1471.1 169.696 1471.1 158.023C1471.1 146.351 1461.69 136.934 1450.02 136.934H1395.03V179.211ZM1433.95 106.82H1391.1V56.6962H1433.95C1447.77 56.6962 1459.04 67.8785 1459.04 81.7092C1459.04 95.54 1447.77 106.82 1433.95 106.82ZM1395.03 102.897H1433.95C1445.61 102.897 1455.12 93.382 1455.12 81.7092C1455.12 70.0365 1445.61 60.6198 1433.95 60.6198H1395.03V102.897Z" fill="#086C81"/>
</svg>
