<svg width="1052" height="240" viewBox="0 0 1052 240" fill="none" xmlns="http://www.w3.org/2000/svg">
<path fill-rule="evenodd" clip-rule="evenodd" d="M1051.79 239.831H793.964V209.325H806.022C834.256 209.325 857.195 186.273 857.195 158.023C857.195 140.171 847.686 123.398 832.393 114.079L830.531 113L831.805 111.332C837.883 102.602 841.216 92.4011 841.216 81.7092C841.216 55.6172 821.61 33.7431 795.729 30.8003L793.964 30.6042V3.92361H773.77V30.5061H753.477V3.92361H733.38V30.5061H692.305V56.6962H721.028V183.135H692.305V209.325H733.38V239.831H0V235.907H729.459V213.248H688.384V179.211H717.107V60.6198H688.384V26.5825H729.459V0H757.398V26.5825H769.848V0H797.886V27.171C824.943 30.9965 845.137 54.1459 845.137 81.7092C845.137 92.4992 842 102.897 836.118 111.823C851.607 122.024 861.117 139.484 861.117 158.023C861.117 188.431 836.412 213.248 806.022 213.248H797.886V235.907H1051.79V239.831ZM773.77 237.869H769.848V213.248H757.398V237.869H753.477V209.325H773.77V237.869ZM806.022 183.135H747.105V133.01H806.022C819.845 133.01 831.021 144.193 831.021 158.023C831.021 171.854 819.845 183.135 806.022 183.135ZM751.026 179.211H806.022C817.688 179.211 827.099 169.696 827.099 158.023C827.099 146.351 817.688 136.934 806.022 136.934H751.026V179.211ZM789.945 106.82H747.105V56.6962H789.945C803.768 56.6962 815.041 67.8785 815.041 81.7092C815.041 95.54 803.768 106.82 789.945 106.82ZM751.026 102.897H789.945C801.611 102.897 811.12 93.382 811.12 81.7092C811.12 70.0365 801.611 60.6198 789.945 60.6198H751.026V102.897Z" fill="#086C81"/>
</svg>
