<svg width="32" height="32" viewBox="0 0 32 32" fill="none" xmlns="http://www.w3.org/2000/svg">
<path d="M32 16C32 31 31 32 16 32C1 32 0 31.5 0 16C0 0.5 0.5 0 16 0C31.5 0 32 1 32 16Z" fill="#CBDDE1"/>
<path fillRule="evenodd" clipRule="evenodd" d="M16.1096 22.4706C15.6325 22.4649 15.3363 22.3332 15.0567 22.1729C14.5138 21.8695 13.9763 21.5603 13.4389 21.2512C12.5432 20.7397 11.6493 20.2264 10.7573 19.7111C10.5215 19.5794 10.2857 19.4478 10.0663 19.2932C9.92374 19.1959 9.79213 19.0642 9.68245 18.9268C9.47406 18.6634 9.45761 18.3486 9.57826 18.0451C9.74826 17.6215 9.95116 17.2093 10.1541 16.8028C10.4557 16.1845 10.7683 15.5776 11.0808 14.9651C11.4483 14.2323 11.8212 13.4995 12.1941 12.7609C12.567 12.0224 12.9399 11.2724 13.3183 10.5282C13.6363 9.88697 13.9654 9.24577 14.2889 8.60456C14.5467 8.09504 14.7989 7.57406 15.0621 7.06453C15.2157 6.7611 15.3583 6.4405 15.5996 6.19433C15.7915 5.99395 16.0054 5.94242 16.2138 6.06838C16.3234 6.13708 16.4331 6.2344 16.4989 6.34318C16.6689 6.61798 16.8279 6.8985 16.976 7.18476C17.1954 7.60268 17.4038 8.03206 17.6176 8.45571C17.9412 9.10264 18.2647 9.74957 18.5883 10.3965C18.8405 10.9003 19.0983 11.3984 19.3505 11.9022C19.5735 12.3487 19.7984 12.7953 20.0251 13.2418C20.2554 13.7056 20.4912 14.1636 20.7215 14.6273C20.9463 15.0681 21.1657 15.5147 21.3905 15.9555C21.6757 16.528 21.9663 17.0891 22.2405 17.6673C22.3228 17.8276 22.3776 18.0051 22.427 18.1825C22.5257 18.5776 22.3941 18.9096 22.1034 19.1386C21.8402 19.3447 21.5605 19.5107 21.2809 19.6768C20.7873 19.9687 20.2883 20.2493 19.7947 20.5298C19.2738 20.8275 18.7528 21.1195 18.2318 21.4172C17.7547 21.692 17.2776 21.9668 16.795 22.2301C16.5318 22.379 16.2576 22.4706 16.1096 22.4706ZM13.6418 17.3753C13.8502 17.4955 14.0476 17.6158 14.245 17.7245C14.7825 18.0337 15.3199 18.3371 15.8573 18.6463C15.945 18.6978 16.0218 18.6978 16.1096 18.652C16.5976 18.3715 17.0857 18.0909 17.5792 17.8104C17.8242 17.6692 18.071 17.5261 18.3196 17.381C18.1715 16.9917 16.0438 12.8182 15.9615 12.7724C15.1883 14.301 14.415 15.8353 13.6418 17.3753Z" fill="#086C81"/>
<path d="M24.3803 26C24.0413 25.9772 23.697 25.9659 23.3635 25.926C22.9153 25.8805 22.5818 25.6187 22.3632 25.2147C22.0188 24.6001 21.7018 23.9685 21.3902 23.3368C21.3137 23.1775 21.2754 22.9897 21.259 22.8133C21.2207 22.4207 21.4175 22.1475 21.7072 21.954C22.0024 21.7549 22.3085 21.5785 22.6146 21.4021C22.7841 21.311 22.959 21.2256 23.1449 21.163C23.5603 21.0151 23.8938 21.1175 24.1561 21.4931C24.3475 21.7662 24.506 22.0678 24.659 22.3638C24.8722 22.7621 25.0745 23.1661 25.2767 23.5758C25.4954 24.014 25.714 24.4579 25.9217 24.9074C25.9709 25.0155 25.9928 25.1521 25.9983 25.2716C26.0201 25.5903 25.8343 25.835 25.5172 25.9033C25.3369 25.9431 25.1455 25.9602 24.9597 25.9716C24.7684 25.9829 24.5716 25.9772 24.3803 25.9772C24.3803 25.9848 24.3803 25.9924 24.3803 26Z" fill="#086C81"/>
<path d="M7.52859 26C7.25391 25.9829 6.89683 25.9716 6.55073 25.926C6.31451 25.8919 6.10026 25.778 6.02335 25.5105C5.99039 25.3853 5.99588 25.243 6.01785 25.1121C6.0673 24.8047 6.22661 24.5429 6.36395 24.2697C6.64412 23.7062 6.92979 23.1427 7.22095 22.5849C7.40223 22.2377 7.58352 21.8848 7.79777 21.5547C8.08344 21.105 8.52292 20.9798 8.97889 21.2132C9.42387 21.4465 9.86335 21.6856 10.2809 21.9645C10.7039 22.2491 10.8632 22.6646 10.6544 23.1769C10.4676 23.6379 10.2369 24.0762 10.0117 24.5201C9.86885 24.799 9.72052 25.0665 9.55571 25.3284C9.314 25.7097 8.96241 25.9146 8.5394 25.9488C8.22627 25.9772 7.91863 25.9829 7.52859 26Z" fill="#086C81"/>
</svg>
